<svg width="28.000000000000004" height="28.000000000000004" xmlns="http://www.w3.org/2000/svg">

 <g>
  <title>background</title>
  <rect fill="none" id="canvas_background" height="30" width="30" y="-1" x="-1"/>
 </g>
 <g>
  <title>Layer 1</title>
  <path stroke="null" fill="#ee495c" id="_x3C_trazado_x3E_" d="m14,0c-7.73,0 -14,6.27 -14,14c0,7.73 6.27,14 14,14s14,-6.27 14,-14c0,-7.73 -6.27,-14 -14,-14zm0,26c-6.62,0 -12,-5.38 -12,-12s5.38,-12 12,-12s12,5.38 12,12s-5.38,12 -12,12zm6,-13l0,2l-5,0l0,5l-2,0l0,-5l-5,0l0,-2l5,0l0,-5l2,0l0,5l5,0z"/>
 </g>
</svg>